 <svg version="1.0" xmlns="http://www.w3.org/2000/svg"  width="243.000000pt" height="207.000000pt" viewBox="0 0 243.000000 207.000000"  preserveAspectRatio="xMidYMid meet"> <circle cx="121.5" cy="103.5" r="103.5" fill="#FFC300"/> <g transform="translate(0.000000,207.000000) scale(0.100000,-0.100000)" fill="#000000" stroke="none"> <path d="M350 1973 c-31 -11 -71 -58 -81 -97 -28 -103 79 -203 179 -168 28 9 33 7 76 -37 l47 -48 -55 -77 c-109 -151 -155 -285 -163 -472 -4 -91 -1 -141 11 -205 56 -276 231 -499 488 -618 135 -63 192 -75 363 -75 178 0 233 12 380 84 156 77 151 68 73 147 l-67 67 -53 -50 c-29 -28 -73 -64 -97 -80 l-44 -29 44 -9 c41 -8 43 -9 19 -18 -14 -5 -53 -16 -87 -24 -62 -14 -63 -14 -127 15 -182 82 -332 228 -417 406 -108 223 -108 477 0 700 82 172 210 300 391 393 41 21 54 30 35 27 -105 -22 -159 -40 -230 -74 -164 -78 -281 -194 -361 -356 -65 -133 -79 -195 -78 -355 1 -123 3 -143 31 -228 43 -129 101 -222 197 -317 114 -112 237 -180 377 -209 90 -18 83 -28 -16 -20 -194 15 -317 63 -418 162 -114 111 -185 231 -234 389 -23 77 -26 106 -27 228 0 117 3 153 22 220 51 178 153 337 295 456 54 46 85 62 155 85 81 27 97 29 242 28 128 0 165 -4 215 -21 58 -19 59 -20 30 -27 -16 -5 -50 -13 -75 -20 l-45 -12 87 -23 c167 -44 302 -124 422 -251 75 -80 97 -121 126 -234 24 -94 38 -276 21 -276 -6 0 -11 13 -11 28 0 87 -83 282 -165 384 -60 77 -178 169 -270 213 -95 45 -219 75 -310 75 l-70 0 -60 -52 c-33 -29 -72 -66 -86 -83 l-27 -30 142 0 c115 0 155 -5 219 -23 270 -77 493 -283 588 -542 31 -87 31 -88 -4 -182 -25 -65 -37 -74 -37 -25 0 63 -70 284 -77 242 -11 -67 -39 -167 -61 -217 l-25 -59 79 -79 c43 -44 81 -80 84 -80 11 0 89 137 113 200 44 112 60 218 54 354 -8 187 -54 321 -163 472 l-55 77 47 48 c43 44 48 46 76 37 100 -35 207 65 179 168 -6 22 -24 53 -41 69 -24 23 -41 30 -88 33 -55 4 -61 2 -95 -28 -45 -39 -65 -96 -50 -144 10 -33 9 -36 -37 -81 l-48 -47 -63 48 c-310 230 -738 230 -1048 0 l-63 -48 -48 47 c-46 45 -47 48 -37 81 15 48 -5 105 -48 143 -30 26 -44 31 -83 30 -26 0 -54 -3 -62 -6z m24 -24 c-5 -8 -2 -9 11 -1 25 13 72 -1 104 -32 22 -21 26 -33 25 -74 -1 -27 -4 -54 -7 -60 -4 -5 5 -21 19 -35 15 -15 23 -31 18 -38 -4 -7 -3 -9 3 -6 6 4 25 -7 43 -23 l33 -29 37 19 c21 11 41 16 45 12 5 -4 5 -2 2 4 -3 6 3 17 15 25 11 8 26 19 32 25 18 17 60 39 70 36 4 -2 13 4 20 13 10 14 13 14 31 0 11 -9 15 -14 10 -11 -14 6 -96 -59 -87 -69 4 -5 2 -5 -4 -2 -6 3 -29 -14 -51 -38 -23 -24 -44 -41 -47 -37 -3 3 -6 0 -6 -6 0 -7 -9 -21 -20 -32 -11 -11 -21 -25 -22 -32 -2 -7 -11 -21 -21 -33 -21 -23 -105 -193 -110 -221 -1 -11 -5 -24 -9 -29 -3 -6 -9 -29 -12 -51 -4 -22 -9 -51 -13 -64 -10 -40 -16 -233 -6 -227 4 3 8 -9 9 -26 1 -32 13 -100 23 -134 1 -2 1 -6 1 -10 1 -5 8 -18 16 -30 8 -13 13 -23 10 -23 -7 0 42 -113 58 -132 9 -10 16 -21 16 -24 0 -3 9 -17 20 -31 11 -14 17 -30 13 -37 -3 -6 -3 -8 1 -4 8 7 23 -7 81 -76 17 -20 35 -36 42 -36 6 0 18 -8 25 -19 17 -24 109 -82 119 -75 5 3 9 0 9 -6 0 -6 8 -10 18 -9 9 1 31 -3 47 -10 17 -7 44 -14 60 -16 17 -2 30 -4 30 -5 0 -10 184 -19 190 -9 3 4 27 7 53 7 40 0 87 6 87 12 0 1 14 4 30 6 36 6 75 30 75 46 0 6 -7 20 -16 29 -16 17 -15 19 7 28 13 5 38 23 56 40 18 17 37 31 43 31 14 0 80 -61 80 -74 0 -6 -15 -19 -33 -29 -17 -11 -32 -17 -32 -16 0 2 -14 -6 -31 -18 -17 -12 -34 -20 -38 -16 -3 3 -6 1 -6 -6 0 -7 -4 -9 -10 -6 -5 3 -10 0 -11 -7 0 -10 -2 -10 -6 0 -2 6 -10 9 -16 5 -20 -13 -80 -34 -112 -39 -16 -2 -46 -7 -65 -11 -50 -9 -239 -2 -270 10 -8 4 -27 8 -42 11 -14 2 -36 10 -48 16 -12 6 -27 9 -35 7 -7 -3 -22 3 -33 13 -11 10 -22 16 -26 13 -3 -3 -8 1 -12 10 -3 9 -12 13 -19 11 -7 -3 -16 0 -20 5 -3 6 -10 9 -15 6 -4 -3 -15 6 -24 20 -9 13 -22 22 -29 20 -6 -3 -32 11 -56 30 -24 19 -42 35 -39 35 3 0 -18 24 -46 53 -28 29 -54 51 -58 49 -5 -2 -8 2 -8 8 0 7 -13 31 -29 55 -16 24 -32 53 -36 64 -3 12 -11 21 -16 21 -6 0 -7 5 -4 10 4 6 2 17 -4 24 -13 15 -51 119 -57 156 -27 163 -21 297 21 440 26 93 116 257 156 287 20 15 31 53 16 53 -6 0 -7 3 -4 7 4 3 -9 21 -28 40 -19 18 -31 33 -27 33 4 0 -6 9 -23 20 -21 14 -33 16 -42 8 -7 -6 -13 -8 -13 -4 0 3 -12 1 -26 -5 -21 -7 -36 -5 -70 11 -42 21 -55 40 -59 90 -3 26 33 115 42 106 3 -3 12 1 20 9 17 18 27 20 17 4z m1712 -9 c48 -34 63 -114 30 -164 -15 -24 -69 -60 -77 -52 -2 2 -21 7 -43 10 -21 4 -41 8 -45 10 -3 2 -21 -11 -40 -30 -19 -18 -39 -30 -44 -27 -6 4 0 14 12 25 13 10 20 18 16 18 -5 0 0 8 9 19 12 13 15 28 10 52 -3 19 -6 39 -6 44 3 43 29 85 53 85 11 0 18 4 15 9 -3 5 7 8 23 7 17 -1 28 1 25 5 -8 13 40 5 62 -11z m-1012 -82 c-5 -8 -2 -9 11 -4 16 6 16 4 4 -10 -8 -10 -15 -12 -17 -5 -2 7 -12 7 -30 -3 -15 -7 -33 -11 -39 -9 -7 3 -13 0 -13 -5 0 -6 -8 -9 -17 -7 -10 1 -24 -2 -31 -8 -17 -13 -60 -18 -67 -7 -3 4 7 11 23 15 15 5 34 10 42 12 8 3 23 4 33 4 10 0 15 5 11 11 -5 7 -1 9 9 5 10 -3 17 -3 17 2 0 5 11 7 25 6 14 -2 27 1 31 6 3 5 7 9 10 9 3 0 2 -5 -2 -12z m289 -1 c-4 -7 0 -8 11 -4 10 4 26 2 37 -4 11 -5 33 -12 50 -14 17 -2 37 -9 45 -16 8 -6 17 -9 21 -5 3 3 14 -1 24 -10 16 -15 36 -22 68 -23 8 -1 11 -4 8 -8 -6 -6 13 -20 53 -39 8 -4 21 -15 28 -23 9 -10 11 -11 6 -2 -5 9 -3 12 4 7 7 -4 12 -14 12 -23 0 -9 3 -14 6 -10 3 3 15 -3 27 -14 27 -25 51 -24 70 4 12 17 18 19 27 10 10 -9 8 -16 -9 -34 -11 -13 -21 -26 -21 -29 0 -6 12 -23 78 -106 23 -29 41 -55 40 -56 -2 -2 9 -28 24 -58 40 -84 40 -84 62 -195 20 -101 20 -249 0 -340 -8 -38 -17 -80 -20 -93 -6 -31 -70 -162 -91 -189 l-18 -22 -65 66 c-36 37 -58 63 -50 58 13 -8 13 -7 1 8 -9 11 -10 17 -2 17 6 0 10 3 9 8 -1 7 1 15 18 57 8 21 11 32 13 52 1 13 36 11 37 -3 0 -5 4 -36 9 -69 5 -33 8 -64 7 -68 -1 -4 5 -10 13 -13 8 -3 12 -10 9 -15 -3 -5 0 -9 5 -9 6 0 11 5 11 12 0 6 3 8 7 5 9 -9 34 13 27 24 -3 5 0 9 5 9 6 0 10 3 9 8 -1 7 7 31 23 67 12 28 19 72 11 80 -3 3 -8 18 -10 33 -2 14 -9 33 -15 41 -10 11 -8 13 9 7 42 -13 47 11 42 189 -1 35 -29 149 -40 162 -5 7 -7 17 -3 23 3 5 1 10 -6 10 -7 0 -9 3 -6 6 3 4 0 16 -8 28 -8 11 -15 28 -15 38 0 9 -5 20 -12 24 -7 5 -8 3 -3 -6 5 -9 4 -11 -3 -6 -7 4 -12 12 -12 17 0 5 -20 29 -45 53 -25 25 -45 50 -45 57 0 7 -3 10 -6 6 -6 -5 -35 17 -78 58 -12 12 -41 31 -66 44 -25 12 -61 32 -80 43 -19 11 -37 20 -40 20 -3 0 -15 4 -28 9 -13 5 -27 9 -31 9 -5 0 -15 8 -22 17 -11 13 -11 15 -1 9 9 -5 15 -1 19 13 3 11 10 18 17 15 10 -5 -1 4 -39 33 -14 10 -35 16 -62 16 -13 1 -23 5 -23 9 0 4 -13 8 -28 8 -15 0 -33 5 -40 12 -7 7 -12 8 -12 2 0 -7 -17 -8 -47 -4 -27 5 -72 5 -102 2 -41 -4 -52 -2 -47 7 6 8 45 11 132 10 85 -1 122 -5 117 -12z m-291 -145 c-19 -15 -54 -46 -79 -69 -25 -24 -50 -40 -57 -36 -6 4 -6 1 2 -9 10 -13 9 -18 -5 -29 -16 -13 -17 -12 -4 4 7 9 11 17 7 17 -3 0 -18 -19 -32 -42 -15 -24 -31 -46 -36 -49 -5 -3 -10 -10 -10 -15 -1 -5 -11 -25 -23 -44 -24 -40 -67 -137 -70 -160 -1 -8 -5 -22 -8 -30 -25 -68 -32 -298 -13 -385 26 -112 79 -229 144 -320 46 -63 165 -181 192 -190 11 -4 18 -11 15 -16 -4 -5 -1 -9 6 -9 7 0 10 -2 7 -5 -9 -10 -132 54 -197 102 -48 36 -125 118 -158 169 -7 10 -24 36 -38 57 -13 20 -22 37 -19 37 4 0 -1 11 -10 25 -9 14 -14 25 -11 25 4 0 -1 10 -9 22 -9 12 -16 32 -16 44 0 11 -3 24 -7 28 -4 4 -8 17 -9 29 -1 12 -4 38 -7 57 -12 76 -8 222 6 260 15 40 26 94 20 103 -4 6 -1 7 6 3 8 -5 11 -3 10 5 -2 8 5 29 14 47 10 17 14 32 10 32 -5 0 -3 4 2 8 14 10 66 91 63 97 -2 3 30 37 70 75 70 67 171 140 193 140 6 0 7 4 4 10 -3 5 0 7 8 4 7 -2 25 4 38 15 13 11 26 20 29 20 3 0 -10 -12 -28 -27z m254 -95 c8 3 22 -1 31 -8 14 -12 16 -12 8 1 -7 12 -6 13 7 3 8 -7 18 -10 21 -6 4 3 12 1 19 -4 7 -5 36 -18 63 -28 28 -10 56 -22 63 -28 7 -5 15 -7 18 -4 4 3 15 -3 27 -14 11 -10 27 -19 34 -19 7 0 13 -4 13 -10 0 -5 7 -10 15 -10 8 0 23 -9 32 -20 10 -11 24 -20 32 -20 8 0 12 -2 9 -5 -3 -3 13 -24 36 -48 65 -67 90 -99 112 -144 12 -23 24 -40 28 -38 3 3 4 2 1 -1 -2 -4 5 -24 16 -45 11 -22 17 -39 14 -39 -3 0 -1 -10 6 -21 9 -17 8 -20 -3 -14 -8 4 -8 2 2 -7 8 -7 17 -24 18 -38 2 -14 9 -31 14 -37 7 -9 7 -13 0 -13 -5 0 -21 17 -33 38 -13 20 -28 43 -33 51 -6 10 -5 12 5 7 8 -4 6 -1 -3 7 -10 8 -18 19 -18 26 0 6 -9 16 -20 23 -11 7 -20 16 -20 20 0 13 -107 118 -119 118 -7 0 -10 4 -7 8 2 4 -12 19 -32 32 -20 14 -43 30 -49 37 -22 20 -116 70 -158 83 -22 7 -45 17 -52 22 -10 8 -38 16 -83 23 -8 1 -24 6 -35 11 -11 5 -68 9 -127 9 -60 0 -108 3 -108 8 0 4 5 7 11 7 5 0 7 5 4 10 -3 6 -1 10 4 10 11 0 41 22 70 52 17 17 142 31 149 16 2 -4 10 -4 18 -1z"/> <path d="M1085 1403 c-27 -2 -74 -8 -102 -14 -50 -10 -54 -13 -73 -57 -12 -26 -30 -77 -40 -114 l-18 -67 60 64 c66 71 130 121 211 166 28 16 43 28 32 27 -11 -1 -42 -3 -70 -5z m-75 -55 c-19 -18 -34 -36 -32 -41 1 -5 -2 -6 -7 -3 -5 4 -13 1 -18 -6 -4 -7 -19 -22 -33 -33 -14 -11 -19 -13 -12 -5 6 8 12 21 12 29 0 8 8 23 18 34 12 15 13 18 2 12 -13 -7 -13 -6 0 8 8 8 30 18 48 20 19 3 36 8 40 11 3 3 8 6 11 6 3 0 -10 -15 -29 -32z"/> <path d="M1253 1346 c-145 -59 -280 -169 -362 -295 -48 -74 -49 -93 -20 -204 l22 -79 43 81 c106 200 275 351 466 419 43 15 78 33 78 39 0 15 -58 46 -112 61 -31 9 -47 6 -115 -22z m129 -17 c15 -6 25 -15 22 -20 -3 -5 -40 -26 -82 -46 -42 -21 -83 -44 -90 -53 -10 -11 -12 -11 -6 -1 4 8 -9 2 -28 -13 -20 -15 -39 -34 -42 -42 -3 -8 -10 -13 -15 -12 -9 3 -136 -122 -136 -134 0 -3 -4 -10 -9 -15 -5 -5 -6 -3 -2 5 4 6 2 12 -4 12 -6 0 -8 5 -4 12 4 6 3 8 -4 5 -5 -4 -8 -16 -5 -26 3 -12 -10 -44 -32 -80 -34 -55 -54 -74 -56 -53 -1 24 -9 80 -13 100 -3 12 -1 22 3 22 5 0 16 16 25 35 9 19 21 35 26 35 6 0 10 7 10 15 0 7 6 18 13 22 7 4 26 25 43 45 16 21 34 38 39 38 6 0 24 14 40 31 17 17 42 36 58 41 15 6 27 14 27 19 0 5 7 9 15 9 8 0 15 5 15 11 0 6 7 8 16 5 10 -4 13 -2 8 6 -5 7 -2 9 8 5 9 -3 23 2 31 11 19 21 91 27 129 11z m58 -13 c0 -3 -4 -8 -10 -11 -5 -3 -10 -1 -10 4 0 6 5 11 10 11 6 0 10 -2 10 -4z"/> <path d="M1581 1238 c12 -44 12 -190 -2 -264 -35 -198 -143 -389 -290 -513 -35 -30 -65 -57 -67 -61 -1 -4 15 -15 37 -25 l40 -18 71 42 c226 135 380 398 380 651 0 60 0 60 -58 118 -31 31 -72 67 -89 80 l-32 22 10 -32z m109 -107 c28 -35 39 -89 28 -142 -4 -20 -9 -51 -10 -70 -1 -19 -10 -56 -21 -84 -10 -27 -19 -54 -20 -60 -1 -5 -4 -12 -7 -15 -8 -8 -40 -74 -40 -82 0 -5 -8 -16 -17 -26 -10 -10 -29 -33 -43 -52 -32 -44 -89 -100 -101 -100 -6 0 -7 -5 -3 -12 4 -6 3 -8 -3 -5 -5 3 -24 -7 -41 -22 -17 -16 -33 -26 -36 -23 -3 3 -6 1 -6 -4 0 -6 -16 -16 -35 -24 -19 -8 -35 -18 -35 -24 0 -6 -8 -3 -17 7 -16 15 -15 18 13 39 46 36 106 99 149 158 22 30 43 57 47 58 5 2 8 10 8 18 0 8 11 32 25 54 14 22 23 40 20 40 -4 0 -3 6 2 13 4 6 8 14 8 17 1 3 8 19 18 37 9 17 17 46 19 65 1 18 6 39 11 46 6 7 11 69 11 136 l1 124 25 -18 c14 -10 36 -32 50 -49z"/> <path d="M1430 1186 c-89 -37 -121 -55 -197 -113 -117 -88 -213 -222 -262 -366 -20 -59 -20 -59 47 -141 l23 -29 6 24 c4 13 28 67 54 119 76 153 201 286 341 363 l58 32 0 68 c0 37 -3 67 -7 67 -5 -1 -33 -11 -63 -24z m41 -46 c2 -37 -1 -54 -13 -65 -8 -7 -9 -6 -4 3 4 6 -9 3 -28 -9 -20 -12 -36 -25 -36 -31 0 -5 -4 -7 -8 -4 -5 3 -20 -5 -33 -17 -13 -12 -26 -21 -29 -20 -6 2 -108 -101 -147 -149 -12 -14 -19 -29 -16 -32 4 -3 2 -6 -4 -6 -12 0 -77 -104 -88 -142 -11 -33 -35 -68 -48 -68 -6 0 -8 3 -4 6 3 4 -1 13 -9 21 -17 18 -16 82 3 101 7 8 10 19 6 25 -4 8 -2 8 9 -1 13 -10 15 -9 11 10 -2 13 5 39 17 58 11 19 23 43 26 53 4 9 10 17 15 17 5 0 9 4 9 9 0 11 111 121 123 121 4 0 5 5 2 10 -3 6 1 10 9 10 9 0 16 4 16 9 0 5 27 24 60 43 33 18 60 36 60 41 0 4 5 5 10 2 6 -3 10 -2 10 3 0 6 7 13 16 16 8 3 12 2 9 -4 -3 -6 1 -7 9 -4 9 3 14 9 12 13 -3 4 4 7 15 7 13 0 19 -8 20 -26z"/> <path d="M1420 924 c-86 -63 -153 -134 -206 -220 -55 -89 -108 -226 -92 -242 30 -30 222 163 285 285 38 72 88 211 80 220 -2 2 -33 -17 -67 -43z m17 -41 c-2 -10 -9 -28 -15 -41 -7 -12 -10 -28 -6 -34 4 -7 3 -8 -4 -4 -11 6 -17 -13 -13 -37 1 -5 -2 -6 -7 -3 -4 2 -18 -17 -31 -44 -13 -27 -29 -51 -37 -54 -8 -3 -14 -12 -14 -21 0 -8 -5 -15 -11 -15 -5 0 -7 -5 -4 -10 4 -6 2 -9 -3 -8 -6 2 -27 -16 -49 -39 -36 -39 -83 -65 -83 -45 0 12 44 106 71 152 29 50 79 112 107 135 14 11 39 35 55 53 34 36 48 41 44 15z m-267 -377 c0 -2 -7 -7 -16 -10 -8 -3 -12 -2 -9 4 6 10 25 14 25 6z"/> <path d="M1648 603 l-28 -29 188 -186 c129 -128 206 -197 249 -221 l62 -36 -27 52 c-18 35 -91 117 -222 250 l-195 198 -27 -28z m150 -133 c65 -64 110 -116 106 -122 -4 -7 -3 -8 5 -4 7 5 24 -7 43 -28 17 -20 38 -36 47 -36 8 0 11 -3 8 -7 -4 -3 0 -15 10 -25 9 -10 14 -20 11 -23 -11 -11 -39 8 -54 36 -8 16 -17 29 -20 29 -3 0 -2 -6 2 -12 4 -7 -26 21 -68 62 -41 41 -74 79 -74 85 1 5 -3 9 -9 10 -11 0 -69 56 -71 68 -1 4 -2 12 -3 17 0 6 -6 10 -12 10 -5 0 -7 -6 -4 -12 4 -7 -5 1 -19 17 -26 31 -32 45 -18 45 4 0 58 -50 120 -110z"/> <path d="M438 311 c-40 -43 -85 -101 -100 -129 l-27 -51 67 39 c37 22 95 67 129 102 l61 63 -28 27 -28 27 -74 -78z m82 21 c0 -7 -77 -84 -113 -111 -15 -12 -17 -12 -11 3 3 9 10 16 15 16 5 0 8 5 7 12 -2 6 8 17 22 25 14 7 21 13 15 13 -5 0 3 11 19 25 29 25 46 31 46 17z"/> </g> </svg> 